<svg width="247" height="65" viewBox="0 0 247 65" fill="none" xmlns="http://www.w3.org/2000/svg">
<rect width="247" height="65" rx="30" fill="white"/>
<path d="M67.0192 27.2955H63.4738C63.3374 26.5379 63.0836 25.8712 62.7124 25.2955C62.3412 24.7197 61.8867 24.2311 61.3488 23.8295C60.8109 23.428 60.2086 23.125 59.542 22.9205C58.8829 22.7159 58.1821 22.6136 57.4397 22.6136C56.0988 22.6136 54.898 22.9508 53.8374 23.625C52.7844 24.2992 51.9511 25.2879 51.3374 26.5909C50.7314 27.8939 50.4283 29.4848 50.4283 31.3636C50.4283 33.2576 50.7314 34.8561 51.3374 36.1591C51.9511 37.4621 52.7882 38.447 53.8488 39.1136C54.9094 39.7803 56.1026 40.1136 57.4283 40.1136C58.1632 40.1136 58.8601 40.0152 59.5192 39.8182C60.1859 39.6136 60.7882 39.3144 61.3261 38.9205C61.8639 38.5265 62.3185 38.0455 62.6897 37.4773C63.0685 36.9015 63.3298 36.2424 63.4738 35.5L67.0192 35.5114C66.8298 36.6553 66.4624 37.7083 65.917 38.6705C65.3791 39.625 64.6859 40.4508 63.8374 41.1477C62.9965 41.8371 62.0344 42.3712 60.9511 42.75C59.8677 43.1288 58.6859 43.3182 57.4056 43.3182C55.3904 43.3182 53.595 42.8409 52.0192 41.8864C50.4435 40.9242 49.2011 39.5492 48.292 37.7614C47.3904 35.9735 46.9397 33.8409 46.9397 31.3636C46.9397 28.8788 47.3942 26.7462 48.3033 24.9659C49.2124 23.178 50.4548 21.8068 52.0306 20.8523C53.6064 19.8902 55.398 19.4091 57.4056 19.4091C58.6404 19.4091 59.792 19.5871 60.8601 19.9432C61.9359 20.2917 62.9018 20.8068 63.7579 21.4886C64.6139 22.1629 65.3223 22.9886 65.8829 23.9659C66.4435 24.9356 66.8223 26.0455 67.0192 27.2955ZM82.005 35.7614V25.5455H85.4141V43H82.0732V39.9773H81.8914C81.4899 40.9091 80.8459 41.6856 79.9596 42.3068C79.0808 42.9205 77.9861 43.2273 76.6755 43.2273C75.5543 43.2273 74.5619 42.9811 73.6982 42.4886C72.8422 41.9886 72.1679 41.25 71.6755 40.2727C71.1906 39.2955 70.9482 38.0871 70.9482 36.6477V25.5455H74.3459V36.2386C74.3459 37.428 74.6755 38.375 75.3346 39.0795C75.9937 39.7841 76.8497 40.1364 77.9028 40.1364C78.5391 40.1364 79.1717 39.9773 79.8005 39.6591C80.4369 39.3409 80.9634 38.8598 81.38 38.2159C81.8043 37.572 82.0126 36.7538 82.005 35.7614ZM103.059 29.8068L99.9795 30.3523C99.8507 29.9583 99.6461 29.5833 99.3658 29.2273C99.0931 28.8712 98.7219 28.5795 98.2522 28.3523C97.7825 28.125 97.1954 28.0114 96.4908 28.0114C95.5287 28.0114 94.7257 28.2273 94.0817 28.6591C93.4378 29.0833 93.1158 29.6326 93.1158 30.3068C93.1158 30.8902 93.3317 31.3598 93.7636 31.7159C94.1954 32.072 94.8923 32.3636 95.8545 32.5909L98.6272 33.2273C100.233 33.5985 101.43 34.1705 102.218 34.9432C103.006 35.7159 103.4 36.7197 103.4 37.9545C103.4 39 103.097 39.9318 102.491 40.75C101.892 41.5606 101.055 42.197 99.9795 42.6591C98.9113 43.1212 97.6726 43.3523 96.2636 43.3523C94.309 43.3523 92.7143 42.9356 91.4795 42.1023C90.2446 41.2614 89.487 40.0682 89.2067 38.5227L92.4908 38.0227C92.6954 38.8788 93.1158 39.5265 93.7522 39.9659C94.3886 40.3977 95.2181 40.6136 96.2408 40.6136C97.3545 40.6136 98.2446 40.3826 98.9113 39.9205C99.5779 39.4508 99.9113 38.8788 99.9113 38.2045C99.9113 37.6591 99.7067 37.2008 99.2976 36.8295C98.8961 36.4583 98.2787 36.178 97.4454 35.9886L94.4908 35.3409C92.862 34.9697 91.6575 34.3788 90.8772 33.5682C90.1045 32.7576 89.7181 31.7311 89.7181 30.4886C89.7181 29.4583 90.006 28.5568 90.5817 27.7841C91.1575 27.0114 91.9529 26.4091 92.9681 25.9773C93.9833 25.5379 95.1461 25.3182 96.4567 25.3182C98.3431 25.3182 99.8279 25.7273 100.911 26.5455C101.995 27.3561 102.711 28.4432 103.059 29.8068ZM115.283 25.5455V28.2727H105.749V25.5455H115.283ZM108.306 21.3636H111.704V37.875C111.704 38.5341 111.802 39.0303 111.999 39.3636C112.196 39.6894 112.45 39.9129 112.761 40.0341C113.079 40.1477 113.424 40.2045 113.795 40.2045C114.068 40.2045 114.306 40.1856 114.511 40.1477C114.715 40.1098 114.874 40.0795 114.988 40.0568L115.602 42.8636C115.405 42.9394 115.124 43.0152 114.761 43.0909C114.397 43.1742 113.943 43.2197 113.397 43.2273C112.503 43.2424 111.67 43.0833 110.897 42.75C110.124 42.4167 109.499 41.9015 109.022 41.2045C108.545 40.5076 108.306 39.6326 108.306 38.5795V21.3636ZM126.207 43.3523C124.57 43.3523 123.142 42.9773 121.923 42.2273C120.703 41.4773 119.756 40.428 119.082 39.0795C118.407 37.7311 118.07 36.1553 118.07 34.3523C118.07 32.5417 118.407 30.9583 119.082 29.6023C119.756 28.2462 120.703 27.1932 121.923 26.4432C123.142 25.6932 124.57 25.3182 126.207 25.3182C127.843 25.3182 129.271 25.6932 130.491 26.4432C131.711 27.1932 132.657 28.2462 133.332 29.6023C134.006 30.9583 134.343 32.5417 134.343 34.3523C134.343 36.1553 134.006 37.7311 133.332 39.0795C132.657 40.428 131.711 41.4773 130.491 42.2273C129.271 42.9773 127.843 43.3523 126.207 43.3523ZM126.218 40.5C127.279 40.5 128.157 40.2197 128.854 39.6591C129.551 39.0985 130.067 38.3523 130.4 37.4205C130.741 36.4886 130.911 35.4621 130.911 34.3409C130.911 33.2273 130.741 32.2045 130.4 31.2727C130.067 30.3333 129.551 29.5795 128.854 29.0114C128.157 28.4432 127.279 28.1591 126.218 28.1591C125.15 28.1591 124.264 28.4432 123.559 29.0114C122.862 29.5795 122.343 30.3333 122.002 31.2727C121.669 32.2045 121.502 33.2273 121.502 34.3409C121.502 35.4621 121.669 36.4886 122.002 37.4205C122.343 38.3523 122.862 39.0985 123.559 39.6591C124.264 40.2197 125.15 40.5 126.218 40.5ZM138.136 43V25.5455H141.397V28.3864H141.613C141.977 27.4242 142.571 26.6742 143.397 26.1364C144.223 25.5909 145.211 25.3182 146.363 25.3182C147.53 25.3182 148.507 25.5909 149.295 26.1364C150.09 26.6818 150.677 27.4318 151.056 28.3864H151.238C151.655 27.4545 152.318 26.7121 153.227 26.1591C154.136 25.5985 155.219 25.3182 156.477 25.3182C158.06 25.3182 159.352 25.8144 160.352 26.8068C161.359 27.7992 161.863 29.2955 161.863 31.2955V43H158.465V31.6136C158.465 30.4318 158.143 29.5758 157.499 29.0455C156.855 28.5152 156.086 28.25 155.193 28.25C154.086 28.25 153.227 28.5909 152.613 29.2727C151.999 29.947 151.693 30.8144 151.693 31.875V43H148.306V31.3977C148.306 30.4508 148.011 29.6894 147.42 29.1136C146.829 28.5379 146.06 28.25 145.113 28.25C144.469 28.25 143.874 28.4205 143.329 28.7614C142.791 29.0947 142.355 29.5606 142.022 30.1591C141.696 30.7576 141.533 31.4508 141.533 32.2386V43H138.136ZM166.417 43V25.5455H169.815V43H166.417ZM168.133 22.8523C167.542 22.8523 167.034 22.6553 166.61 22.2614C166.193 21.8598 165.985 21.3826 165.985 20.8295C165.985 20.2689 166.193 19.7917 166.61 19.3977C167.034 18.9962 167.542 18.7955 168.133 18.7955C168.724 18.7955 169.228 18.9962 169.644 19.3977C170.068 19.7917 170.281 20.2689 170.281 20.8295C170.281 21.3826 170.068 21.8598 169.644 22.2614C169.228 22.6553 168.724 22.8523 168.133 22.8523ZM174.022 43V40.6705L183.477 28.6591V28.5H174.329V25.5455H187.715V28.0227L178.624 39.8864V40.0455H188.033V43H174.022ZM199.065 43.3523C197.345 43.3523 195.864 42.9848 194.622 42.25C193.387 41.5076 192.432 40.4659 191.758 39.125C191.091 37.7765 190.758 36.197 190.758 34.3864C190.758 32.5985 191.091 31.0227 191.758 29.6591C192.432 28.2955 193.372 27.2311 194.576 26.4659C195.788 25.7008 197.205 25.3182 198.826 25.3182C199.811 25.3182 200.765 25.4811 201.69 25.8068C202.614 26.1326 203.443 26.6439 204.178 27.3409C204.913 28.0379 205.493 28.9432 205.917 30.0568C206.341 31.1629 206.553 32.5076 206.553 34.0909V35.2955H192.678V32.75H203.224C203.224 31.8561 203.042 31.0644 202.678 30.375C202.315 29.678 201.803 29.1288 201.144 28.7273C200.493 28.3258 199.728 28.125 198.849 28.125C197.894 28.125 197.061 28.3598 196.349 28.8295C195.644 29.2917 195.099 29.8977 194.712 30.6477C194.334 31.3902 194.144 32.197 194.144 33.0682V35.0568C194.144 36.2235 194.349 37.2159 194.758 38.0341C195.175 38.8523 195.754 39.4773 196.497 39.9091C197.239 40.3333 198.106 40.5455 199.099 40.5455C199.743 40.5455 200.33 40.4545 200.86 40.2727C201.39 40.0833 201.849 39.803 202.235 39.4318C202.622 39.0606 202.917 38.6023 203.122 38.0568L206.337 38.6364C206.08 39.5833 205.618 40.4129 204.951 41.125C204.292 41.8295 203.462 42.3788 202.462 42.7727C201.47 43.1591 200.337 43.3523 199.065 43.3523Z" fill="black"/>
</svg>
