<svg width="43" height="43" viewBox="0 0 43 43" fill="none" xmlns="http://www.w3.org/2000/svg">
<path d="M0 10C0 4.47715 4.47715 0 10 0H33C38.5229 0 43 4.47715 43 10V33C43 38.5228 38.5228 43 33 43H10C4.47715 43 0 38.5228 0 33V10Z" fill="#353535" fill-opacity="0.4"/>
<path d="M7.81812 16.9394V9.81824C7.81812 8.71367 8.71355 7.81824 9.81812 7.81824H17.5908" stroke="white" stroke-width="3"/>
<path d="M35.1819 16.9394V9.81824C35.1819 8.71367 34.2865 7.81824 33.1819 7.81824H25.4092" stroke="white" stroke-width="3"/>
<path d="M8.46973 26.0606V33.1818C8.46973 34.2863 9.36516 35.1818 10.4697 35.1818H17.5909" stroke="white" stroke-width="3"/>
<path d="M35.1819 26.0606V33.1818C35.1819 34.2863 34.2865 35.1818 33.1819 35.1818H25.4092" stroke="white" stroke-width="3"/>
</svg>
