<svg width="162" height="65" viewBox="0 0 162 65" fill="none" xmlns="http://www.w3.org/2000/svg">
<rect width="162" height="65" rx="30" fill="white"/>
<path d="M52.8068 28.0795C52.5871 27.3902 52.2917 26.7727 51.9205 26.2273C51.5568 25.6742 51.1212 25.2045 50.6136 24.8182C50.1061 24.4242 49.5265 24.125 48.875 23.9205C48.2311 23.7159 47.5227 23.6136 46.75 23.6136C45.4394 23.6136 44.2576 23.9508 43.2045 24.625C42.1515 25.2992 41.3182 26.2879 40.7045 27.5909C40.0985 28.8864 39.7955 30.4735 39.7955 32.3523C39.7955 34.2386 40.1023 35.8333 40.7159 37.1364C41.3295 38.4394 42.1705 39.428 43.2386 40.1023C44.3068 40.7765 45.5227 41.1136 46.8864 41.1136C48.1515 41.1136 49.2538 40.8561 50.1932 40.3409C51.1402 39.8258 51.8712 39.0985 52.3864 38.1591C52.9091 37.2121 53.1705 36.0985 53.1705 34.8182L54.0795 34.9886H47.4205V32.0909H56.5682V34.7386C56.5682 36.6932 56.1515 38.3902 55.3182 39.8295C54.4924 41.2614 53.3485 42.3674 51.8864 43.1477C50.4318 43.928 48.7652 44.3182 46.8864 44.3182C44.7803 44.3182 42.9318 43.8333 41.3409 42.8636C39.7576 41.8939 38.5227 40.5189 37.6364 38.7386C36.75 36.9508 36.3068 34.8295 36.3068 32.375C36.3068 30.5189 36.5644 28.8523 37.0795 27.375C37.5947 25.8977 38.3182 24.6439 39.25 23.6136C40.1894 22.5758 41.2917 21.7841 42.5568 21.2386C43.8295 20.6856 45.2197 20.4091 46.7273 20.4091C47.9848 20.4091 49.1553 20.5947 50.2386 20.9659C51.3295 21.3371 52.2992 21.8636 53.1477 22.5455C54.0038 23.2273 54.7121 24.0379 55.2727 24.9773C55.8333 25.9091 56.2121 26.9432 56.4091 28.0795H52.8068ZM68.2756 44.3523C66.5559 44.3523 65.0748 43.9848 63.8324 43.25C62.5975 42.5076 61.643 41.4659 60.9688 40.125C60.3021 38.7765 59.9688 37.197 59.9688 35.3864C59.9688 33.5985 60.3021 32.0227 60.9688 30.6591C61.643 29.2955 62.5824 28.2311 63.7869 27.4659C64.9991 26.7008 66.4157 26.3182 68.0369 26.3182C69.0218 26.3182 69.9763 26.4811 70.9006 26.8068C71.8248 27.1326 72.6544 27.6439 73.3892 28.3409C74.1241 29.0379 74.7036 29.9432 75.1278 31.0568C75.5521 32.1629 75.7642 33.5076 75.7642 35.0909V36.2955H61.8892V33.75H72.4347C72.4347 32.8561 72.2528 32.0644 71.8892 31.375C71.5256 30.678 71.0142 30.1288 70.3551 29.7273C69.7036 29.3258 68.9384 29.125 68.0597 29.125C67.1051 29.125 66.2718 29.3598 65.5597 29.8295C64.8551 30.2917 64.3097 30.8977 63.9233 31.6477C63.5445 32.3902 63.3551 33.197 63.3551 34.0682V36.0568C63.3551 37.2235 63.5597 38.2159 63.9688 39.0341C64.3854 39.8523 64.965 40.4773 65.7074 40.9091C66.4498 41.3333 67.3172 41.5455 68.3097 41.5455C68.9536 41.5455 69.5407 41.4545 70.071 41.2727C70.6013 41.0833 71.0597 40.803 71.446 40.4318C71.8324 40.0606 72.1278 39.6023 72.3324 39.0568L75.5483 39.6364C75.2907 40.5833 74.8286 41.4129 74.1619 42.125C73.5028 42.8295 72.6733 43.3788 71.6733 43.7727C70.6809 44.1591 69.5483 44.3523 68.2756 44.3523ZM82.9318 33.6364V44H79.5341V26.5455H82.7955V29.3864H83.0114C83.4129 28.4621 84.0417 27.7197 84.8977 27.1591C85.7614 26.5985 86.8485 26.3182 88.1591 26.3182C89.3485 26.3182 90.3902 26.5682 91.2841 27.0682C92.178 27.5606 92.8712 28.2955 93.3636 29.2727C93.8561 30.25 94.1023 31.4583 94.1023 32.8977V44H90.7045V33.3068C90.7045 32.0417 90.375 31.053 89.7159 30.3409C89.0568 29.6212 88.1515 29.2614 87 29.2614C86.2121 29.2614 85.5114 29.4318 84.8977 29.7727C84.2917 30.1136 83.8106 30.6136 83.4545 31.2727C83.1061 31.9242 82.9318 32.7121 82.9318 33.6364ZM98.6591 44V26.5455H101.943V29.3182H102.125C102.443 28.3788 103.004 27.6402 103.807 27.1023C104.617 26.5568 105.534 26.2841 106.557 26.2841C106.769 26.2841 107.019 26.2917 107.307 26.3068C107.602 26.322 107.833 26.3409 108 26.3636V29.6136C107.864 29.5758 107.621 29.5341 107.273 29.4886C106.924 29.4356 106.576 29.4091 106.227 29.4091C105.424 29.4091 104.708 29.5795 104.08 29.9205C103.458 30.2538 102.966 30.7197 102.602 31.3182C102.239 31.9091 102.057 32.5833 102.057 33.3409V44H98.6591ZM117.838 44.3523C116.118 44.3523 114.637 43.9848 113.395 43.25C112.16 42.5076 111.205 41.4659 110.531 40.125C109.865 38.7765 109.531 37.197 109.531 35.3864C109.531 33.5985 109.865 32.0227 110.531 30.6591C111.205 29.2955 112.145 28.2311 113.349 27.4659C114.562 26.7008 115.978 26.3182 117.599 26.3182C118.584 26.3182 119.539 26.4811 120.463 26.8068C121.387 27.1326 122.217 27.6439 122.952 28.3409C123.687 29.0379 124.266 29.9432 124.69 31.0568C125.115 32.1629 125.327 33.5076 125.327 35.0909V36.2955H111.452V33.75H121.997C121.997 32.8561 121.815 32.0644 121.452 31.375C121.088 30.678 120.577 30.1288 119.918 29.7273C119.266 29.3258 118.501 29.125 117.622 29.125C116.668 29.125 115.834 29.3598 115.122 29.8295C114.418 30.2917 113.872 30.8977 113.486 31.6477C113.107 32.3902 112.918 33.197 112.918 34.0682V36.0568C112.918 37.2235 113.122 38.2159 113.531 39.0341C113.948 39.8523 114.527 40.4773 115.27 40.9091C116.012 41.3333 116.88 41.5455 117.872 41.5455C118.516 41.5455 119.103 41.4545 119.634 41.2727C120.164 41.0833 120.622 40.803 121.009 40.4318C121.395 40.0606 121.69 39.6023 121.895 39.0568L125.111 39.6364C124.853 40.5833 124.391 41.4129 123.724 42.125C123.065 42.8295 122.236 43.3788 121.236 43.7727C120.243 44.1591 119.111 44.3523 117.838 44.3523Z" fill="black"/>
</svg>
