<svg width="75" height="75" viewBox="0 0 75 75" fill="none" xmlns="http://www.w3.org/2000/svg">
<rect width="75" height="75" rx="10" fill="#353535" fill-opacity="0.4"/>
<path d="M49.5 20.5034H51.3506V20.5093L51.5 20.5103L51.4082 47.4526C51.4672 47.7939 51.5 48.1448 51.5 48.5034C51.5 52.0034 48.8743 54.5034 45.5605 54.5034C42.2468 54.5034 39.5605 51.8171 39.5605 48.5034C39.5606 45.1897 42.2468 42.5034 45.5605 42.5034C46.213 42.5034 46.8385 42.6087 47.4229 42.8013L47.4688 29.5034H29.8398V47.1274C29.9436 47.5694 30 48.0298 30 48.5034C30 51.8171 27.3137 54.5034 24 54.5034C20.6863 54.5034 18 51.8171 18 48.5034C18 45.1897 20.6863 42.5034 24 42.5034C24.6419 42.5034 25.26 42.6049 25.8398 42.7915V20.5034H47.5V20.4966L49.5 20.5034Z" fill="white"/>
</svg>
