<svg width="162" height="65" viewBox="0 0 162 65" fill="none" xmlns="http://www.w3.org/2000/svg">
<rect width="162" height="65" rx="30" fill="white"/>
<path d="M39.5568 20.7273H43.8182L51.2273 38.8182H51.5L58.9091 20.7273H63.1705V44H59.8295V27.1591H59.6136L52.75 43.9659H49.9773L43.1136 27.1477H42.8977V44H39.5568V20.7273ZM75.3551 44.3523C73.7188 44.3523 72.2907 43.9773 71.071 43.2273C69.8513 42.4773 68.9044 41.428 68.2301 40.0795C67.5559 38.7311 67.2188 37.1553 67.2188 35.3523C67.2188 33.5417 67.5559 31.9583 68.2301 30.6023C68.9044 29.2462 69.8513 28.1932 71.071 27.4432C72.2907 26.6932 73.7188 26.3182 75.3551 26.3182C76.9915 26.3182 78.4195 26.6932 79.6392 27.4432C80.8589 28.1932 81.8059 29.2462 82.4801 30.6023C83.1544 31.9583 83.4915 33.5417 83.4915 35.3523C83.4915 37.1553 83.1544 38.7311 82.4801 40.0795C81.8059 41.428 80.8589 42.4773 79.6392 43.2273C78.4195 43.9773 76.9915 44.3523 75.3551 44.3523ZM75.3665 41.5C76.4271 41.5 77.3059 41.2197 78.0028 40.6591C78.6998 40.0985 79.215 39.3523 79.5483 38.4205C79.8892 37.4886 80.0597 36.4621 80.0597 35.3409C80.0597 34.2273 79.8892 33.2045 79.5483 32.2727C79.215 31.3333 78.6998 30.5795 78.0028 30.0114C77.3059 29.4432 76.4271 29.1591 75.3665 29.1591C74.2983 29.1591 73.4119 29.4432 72.7074 30.0114C72.0104 30.5795 71.4915 31.3333 71.1506 32.2727C70.8172 33.2045 70.6506 34.2273 70.6506 35.3409C70.6506 36.4621 70.8172 37.4886 71.1506 38.4205C71.4915 39.3523 72.0104 40.0985 72.7074 40.6591C73.4119 41.2197 74.2983 41.5 75.3665 41.5ZM94.6364 44.3523C93 44.3523 91.572 43.9773 90.3523 43.2273C89.1326 42.4773 88.1856 41.428 87.5114 40.0795C86.8371 38.7311 86.5 37.1553 86.5 35.3523C86.5 33.5417 86.8371 31.9583 87.5114 30.6023C88.1856 29.2462 89.1326 28.1932 90.3523 27.4432C91.572 26.6932 93 26.3182 94.6364 26.3182C96.2727 26.3182 97.7008 26.6932 98.9205 27.4432C100.14 28.1932 101.087 29.2462 101.761 30.6023C102.436 31.9583 102.773 33.5417 102.773 35.3523C102.773 37.1553 102.436 38.7311 101.761 40.0795C101.087 41.428 100.14 42.4773 98.9205 43.2273C97.7008 43.9773 96.2727 44.3523 94.6364 44.3523ZM94.6477 41.5C95.7083 41.5 96.5871 41.2197 97.2841 40.6591C97.9811 40.0985 98.4962 39.3523 98.8295 38.4205C99.1705 37.4886 99.3409 36.4621 99.3409 35.3409C99.3409 34.2273 99.1705 33.2045 98.8295 32.2727C98.4962 31.3333 97.9811 30.5795 97.2841 30.0114C96.5871 29.4432 95.7083 29.1591 94.6477 29.1591C93.5795 29.1591 92.6932 29.4432 91.9886 30.0114C91.2917 30.5795 90.7727 31.3333 90.4318 32.2727C90.0985 33.2045 89.9318 34.2273 89.9318 35.3409C89.9318 36.4621 90.0985 37.4886 90.4318 38.4205C90.7727 39.3523 91.2917 40.0985 91.9886 40.6591C92.6932 41.2197 93.5795 41.5 94.6477 41.5ZM113.099 44.3409C111.69 44.3409 110.433 43.9811 109.327 43.2614C108.228 42.5341 107.365 41.5 106.736 40.1591C106.115 38.8106 105.804 37.1932 105.804 35.3068C105.804 33.4205 106.118 31.8068 106.747 30.4659C107.384 29.125 108.255 28.0985 109.361 27.3864C110.467 26.6742 111.721 26.3182 113.122 26.3182C114.205 26.3182 115.077 26.5 115.736 26.8636C116.402 27.2197 116.918 27.6364 117.281 28.1136C117.652 28.5909 117.94 29.0114 118.145 29.375H118.349V20.7273H121.747V44H118.429V41.2841H118.145C117.94 41.6553 117.645 42.0795 117.259 42.5568C116.88 43.0341 116.357 43.4508 115.69 43.8068C115.024 44.1629 114.16 44.3409 113.099 44.3409ZM113.849 41.4432C114.827 41.4432 115.652 41.1856 116.327 40.6705C117.009 40.1477 117.524 39.4242 117.872 38.5C118.228 37.5758 118.406 36.5 118.406 35.2727C118.406 34.0606 118.232 33 117.884 32.0909C117.535 31.1818 117.024 30.4735 116.349 29.9659C115.675 29.4583 114.842 29.2045 113.849 29.2045C112.827 29.2045 111.974 29.4697 111.293 30C110.611 30.5303 110.096 31.2538 109.747 32.1705C109.406 33.0871 109.236 34.1212 109.236 35.2727C109.236 36.4394 109.41 37.4886 109.759 38.4205C110.107 39.3523 110.622 40.0909 111.304 40.6364C111.993 41.1742 112.842 41.4432 113.849 41.4432Z" fill="black"/>
</svg>
