<svg width="196" height="196" viewBox="0 0 196 196" fill="none" xmlns="http://www.w3.org/2000/svg">
<path d="M98 0C152.124 0 196 43.8761 196 98C196 152.124 152.124 196 98 196C43.8761 196 0 152.124 0 98C0 43.8761 43.8761 0 98 0ZM74 61C71.2386 61 69 63.2386 69 66V131C69 133.761 71.2386 136 74 136H84C86.7614 136 89 133.761 89 131V66C89 63.2386 86.7614 61 84 61H74ZM111 61C108.239 61 106 63.2386 106 66V131C106 133.761 108.239 136 111 136H121C123.761 136 126 133.761 126 131V66C126 63.2386 123.761 61 121 61H111Z" fill="white"/>
</svg>
