<svg width="67" height="67" viewBox="0 0 67 67" fill="none" xmlns="http://www.w3.org/2000/svg">
<path d="M59.5114 19.9364L58.1335 17.5451C57.0913 15.7365 56.5704 14.8323 55.6838 14.4717C54.7971 14.1111 53.7944 14.3956 51.7891 14.9647L48.3827 15.9242C47.1025 16.2194 45.7591 16.0519 44.5903 15.4513L43.6497 14.9087C42.6473 14.2666 41.8762 13.32 41.4494 12.2073L40.5172 9.42291C39.9042 7.58035 39.5976 6.65907 38.8679 6.13212C38.1384 5.60516 37.1692 5.60516 35.2306 5.60516H32.1185C30.1802 5.60516 29.211 5.60516 28.4812 6.13212C27.7516 6.65907 27.4451 7.58035 26.8322 9.42291L25.8998 12.2073C25.4731 13.32 24.702 14.2666 23.6996 14.9087L22.7591 15.4513C21.5901 16.0519 20.2469 16.2194 18.9666 15.9242L15.5601 14.9647C13.5548 14.3956 12.5521 14.1111 11.6655 14.4717C10.779 14.8323 10.2579 15.7365 9.21579 17.5451L7.83788 19.9364C6.86105 21.6316 6.37261 22.4793 6.46742 23.3816C6.5622 24.2839 7.21606 25.0111 8.52376 26.4654L11.4021 29.6833C12.1056 30.5738 12.605 32.126 12.605 33.5215C12.605 34.9176 12.1057 36.4692 11.4022 37.3601L8.52376 40.578C7.21606 42.0325 6.56222 42.7594 6.46742 43.662C6.37261 44.5642 6.86105 45.4118 7.83788 47.1069L9.21576 49.4982C10.2579 51.3067 10.779 52.2112 11.6655 52.5716C12.5521 52.9323 13.5548 52.6478 15.5602 52.0786L18.9665 51.1191C20.247 50.8237 21.5905 50.9915 22.7596 51.5923L23.6999 52.135C24.7022 52.777 25.473 53.7234 25.8998 54.8362L26.8322 57.6209C27.4451 59.4634 27.7516 60.3846 28.4812 60.9117C29.211 61.4385 30.1802 61.4385 32.1185 61.4385H35.2306C37.1692 61.4385 38.1384 61.4385 38.8679 60.9117C39.5976 60.3846 39.9042 59.4634 40.5172 57.6209L41.4496 54.8362C41.8762 53.7234 42.647 52.777 43.6495 52.135L44.5897 51.5923C45.7588 50.9915 47.1022 50.8237 48.3827 51.1191L51.7891 52.0786C53.7944 52.6478 54.7971 52.9323 55.6838 52.5716C56.5704 52.2112 57.0913 51.3067 58.1335 49.4982L59.5114 47.1069C60.4882 45.4118 60.9765 44.5642 60.8819 43.662C60.7869 42.7594 60.1331 42.0325 58.8255 40.578L55.947 37.3601C55.2435 36.4692 54.7441 34.9176 54.7441 33.5215C54.7441 32.126 55.2438 30.5738 55.947 29.6833L58.8255 26.4654C60.1331 25.0111 60.7869 24.2839 60.8819 23.3816C60.9765 22.4793 60.4882 21.6316 59.5114 19.9364Z" stroke="white" stroke-width="5" stroke-linecap="round"/>
<path d="M43.3253 33.5C43.3253 38.8963 38.9507 43.2709 33.5544 43.2709C28.1581 43.2709 23.7837 38.8963 23.7837 33.5C23.7837 28.1037 28.1581 23.7292 33.5544 23.7292C38.9507 23.7292 43.3253 28.1037 43.3253 33.5Z" stroke="white" stroke-width="5"/>
</svg>
