<svg width="68" height="58" viewBox="0 0 68 58" fill="none" xmlns="http://www.w3.org/2000/svg">
<path d="M35.0103 36C35.0103 36 42.0103 46.5 49.0103 46.5C56.0103 46.5 64.0103 46.5 64.0103 46.5M64.0103 46.5L55.0103 37.5M64.0103 46.5L55.0103 55.5" stroke="white" stroke-width="5"/>
<path d="M0 7.5C0 7.5 0.331356 7.5 5.51022 7.5C10.6891 7.5 16.4447 13.1627 23.0102 21" stroke="white" stroke-width="5"/>
<path d="M0 49.5C0 49.5 3.5 49.5 6.5 49.5C10 49.5 14.1125 46.2744 18.5 41.5L39.5 16.5C42.4736 13.6297 44.217 12.3848 47.5 11C50.783 9.61522 64 11 64 11M64 11L55.5 2M64 11L55.5 20" stroke="white" stroke-width="5"/>
</svg>
