<svg width="75" height="75" viewBox="0 0 75 75" fill="none" xmlns="http://www.w3.org/2000/svg">
<path d="M0 10C0 4.47715 4.47715 0 10 0H65C70.5229 0 75 4.47715 75 10V65C75 70.5229 70.5229 75 65 75H10C4.47715 75 0 70.5229 0 65V10Z" fill="#353535" fill-opacity="0.4"/>
<rect x="15" y="33.5" width="4" height="8" rx="2" fill="white"/>
<rect x="22" y="26" width="4" height="23" rx="2" fill="white"/>
<rect x="29" y="14" width="4" height="47" rx="2" fill="white"/>
<rect x="36" y="22" width="4" height="31" rx="2" fill="white"/>
<rect x="43" y="30" width="4" height="15" rx="2" fill="white"/>
<rect x="50" y="22" width="4" height="31" rx="2" fill="white"/>
<rect x="57" y="33.5" width="4" height="8" rx="2" fill="white"/>
</svg>
