<svg width="61" height="61" viewBox="0 0 61 61" fill="none" xmlns="http://www.w3.org/2000/svg">
<path d="M40.3253 30.5C40.3253 35.8963 35.9507 40.2709 30.5544 40.2709C25.1581 40.2709 20.7837 35.8963 20.7837 30.5C20.7837 25.1037 25.1581 20.7292 30.5544 20.7292C35.9507 20.7292 40.3253 25.1037 40.3253 30.5Z" stroke="white" stroke-width="5"/>
<path d="M56.5114 16.9364L55.1335 14.5451C54.0913 12.7365 53.5704 11.8323 52.6838 11.4717C51.7971 11.1111 50.7944 11.3956 48.7891 11.9647L45.3827 12.9242C44.1025 13.2194 42.7591 13.0519 41.5903 12.4513L40.6497 11.9087C39.6473 11.2666 38.8762 10.32 38.4493 9.20726L37.5172 6.42291C36.9042 4.58035 36.5976 3.65907 35.8679 3.13212C35.1384 2.60516 34.1692 2.60516 32.2306 2.60516H29.1185C27.1802 2.60516 26.211 2.60516 25.4812 3.13212C24.7516 3.65907 24.4451 4.58035 23.8322 6.42291L22.8998 9.20726C22.4731 10.32 21.702 11.2666 20.6996 11.9087L19.7591 12.4513C18.5901 13.0519 17.2469 13.2194 15.9666 12.9242L12.5601 11.9647C10.5548 11.3956 9.55211 11.1111 8.66553 11.4717C7.77895 11.8323 7.25792 12.7365 6.21579 14.5451L4.83788 16.9364C3.86105 18.6316 3.37261 19.4793 3.46742 20.3816C3.5622 21.2839 4.21606 22.0111 5.52376 23.4654L8.40208 26.6833C9.10558 27.5738 9.60504 29.126 9.60504 30.5215C9.60504 31.9176 9.10575 33.4692 8.40217 34.3601L5.52376 37.578C4.21606 39.0325 3.56222 39.7594 3.46742 40.662C3.37261 41.5642 3.86105 42.4118 4.83788 44.1069L6.21576 46.4982C7.25786 48.3067 7.77895 49.2112 8.66553 49.5716C9.55211 49.9323 10.5548 49.6478 12.5602 49.0786L15.9665 48.1191C17.247 47.8237 18.5905 47.9915 19.7596 48.5923L20.6999 49.135C21.7022 49.777 22.473 50.7234 22.8998 51.8362L23.8322 54.6209C24.4451 56.4634 24.7516 57.3846 25.4812 57.9117C26.211 58.4385 27.1802 58.4385 29.1185 58.4385H32.2306C34.1692 58.4385 35.1384 58.4385 35.8679 57.9117C36.5976 57.3846 36.9042 56.4634 37.5172 54.6209L38.4496 51.8362C38.8762 50.7234 39.647 49.777 40.6495 49.135L41.5897 48.5923C42.7588 47.9915 44.1022 47.8237 45.3827 48.1191L48.7891 49.0786C50.7944 49.6478 51.7971 49.9323 52.6838 49.5716C53.5704 49.2112 54.0913 48.3067 55.1335 46.4982L56.5114 44.1069C57.4882 42.4118 57.9765 41.5642 57.8819 40.662C57.7869 39.7594 57.1331 39.0325 55.8255 37.578L52.947 34.3601C52.2435 33.4692 51.7441 31.9176 51.7441 30.5215C51.7441 29.126 52.2438 27.5738 52.947 26.6833L55.8255 23.4654C57.1331 22.0111 57.7869 21.2839 57.8819 20.3816C57.9765 19.4793 57.4882 18.6316 56.5114 16.9364Z" stroke="white" stroke-width="5" stroke-linecap="round"/>
</svg>
